<?xml version="1.0" standalone="no"?>
<!DOCTYPE svg PUBLIC "-//W3C//DTD SVG 1.1//EN" "http://www.w3.org/Graphics/SVG/1.1/DTD/svg11.dtd">
<svg width="390px" height="160px" viewBox="0 0" version="1.1" xmlns="http://www.w3.org/2000/svg" xmlns:xlink="http://www.w3.org/1999/xlink" xml:space="preserve" style="fill-rule:evenodd;clip-rule:evenodd;stroke-linejoin:round;stroke-miterlimit:1.41421;">
    <g>
        <g id="Layer 1">
            <g>
                <path d="M95.2542,84.3245L1.44419,84.3245C-0.369814,84.3245 -0.299814,85.5285 -0.299814,89.0215C-0.299814,92.5135 -0.369814,93.8265 1.44419,93.8265L95.2542,93.8265C97.0682,93.8265 96.9992,92.5135 96.9992,89.0215C96.9992,85.5285 97.0682,84.3245 95.2542,84.3245" style="fill:rgb(163,169,173);fill-rule:nonzero;"/>
            </g>
            <g>
                <path d="M0.256186,13.8787C0.256186,13.8787 2.81919,4.02466 6.50519,4.02466L92.8192,4.02466C94.7392,4.02466 94.5592,5.94166 94.5592,9.09966C94.5592,12.2567 94.7392,13.8787 92.8192,13.8787L0.256186,13.8787Z" style="fill:rgb(163,169,173);fill-rule:nonzero;"/>
            </g>
            <g>
                <path d="M75.5789,50.8489C75.5789,53.1049 74.6159,53.7549 72.2639,53.7549L24.4319,53.7549C22.0909,53.7549 21.1229,53.1049 21.1229,50.8489L21.1229,35.4279C21.1229,33.0569 22.0909,32.5219 24.4319,32.5219L72.2639,32.5219C74.6159,32.5219 75.5789,33.0569 75.5789,35.4279L75.5789,50.8489ZM76.7199,22.8869L19.9819,22.8869C13.7789,22.8869 10.7829,25.5729 10.7829,31.9269L10.7829,54.5699C10.7829,60.9229 13.7789,63.3979 19.9819,63.3979L76.7199,63.3979C82.9249,63.3979 85.9159,60.9229 85.9159,54.5699L85.9159,31.9269C85.9159,25.5729 82.9249,22.8869 76.7199,22.8869" style="fill:rgb(163,169,173);fill-rule:nonzero;"/>
            </g>
            <g>
                <path d="M118.156,96.7151C117.301,98.0601 115.476,97.8081 112.644,96.2931C109.813,94.7781 109.149,93.8831 109.926,92.1001C116.164,77.7621 115.578,48.8801 115.578,48.8801L102.406,48.8801C102.406,48.8801 104.555,39.8741 107.157,39.8741L132.844,39.8741C134.642,39.8741 134.797,41.1731 134.797,43.3241L134.797,48.8801L124.809,48.8801C124.809,48.8801 125.302,85.4801 118.156,96.7151" style="fill:rgb(163,169,173);fill-rule:nonzero;"/>
            </g>
            <g>
                <path d="M156.547,92.9368L145.538,95.8328C145.538,95.8328 145.401,87.8328 147.576,87.2608C149.753,86.6878 152.624,85.9328 152.624,85.9328L157.659,84.6088L162.44,83.3508C163.942,82.9568 164.349,84.0078 164.811,85.8058C165.273,87.6038 166.004,90.4498 166.004,90.4498L157.655,92.6448L156.547,92.9368Z" style="fill:rgb(163,169,173);fill-rule:nonzero;"/>
            </g>
            <g>
                <path d="M104.093,75.7366C104.093,75.7366 103.847,66.4756 106.359,65.7896C108.873,65.1016 119.821,62.1096 119.821,62.1096L123.729,61.0416L129.25,59.5326C130.986,59.0576 131.469,60.2716 132.024,62.3476C132.577,64.4236 133.455,67.7116 133.455,67.7116L104.093,75.7366Z" style="fill:rgb(163,169,173);fill-rule:nonzero;"/>
            </g>
            <g>
                <path d="M109.098,11.1731L116.411,11.1731L116.411,1.80506C116.411,-0.12894 117.849,-0.0489399 121.051,-0.0489399C124.252,-0.0489399 125.577,-0.12894 125.577,1.80506L125.577,11.1731L133.598,11.1731C135.396,11.1731 135.216,12.4651 135.216,14.6151L135.216,20.2751L103.36,20.2751C103.36,20.2751 106.318,11.1731 109.098,11.1731" style="fill:rgb(163,169,173);fill-rule:nonzero;"/>
            </g>
            <g>
                <path d="M150.407,88.3401L150.407,14.8051C146.36,15.9441 145.432,16.7981 145.432,19.5981C145.432,48.5441 145.702,67.9281 143.973,78.6281C142.532,87.5861 141.95,89.9631 138.797,96.7931C137.917,98.6991 137.056,98.5091 134.467,96.9321C131.881,95.3561 130.009,94.2871 130.434,93.3701C133.138,87.5151 134.458,85.1331 135.658,76.7961C137.254,65.6951 137.118,45.0001 137.118,15.7301C137.118,10.2351 140.1,8.00106 144.551,6.91806C144.551,6.91806 169.874,0.96506 170.909,0.71506C172.629,0.29906 173.518,0.98106 173.858,2.60606C174.197,4.23106 175.148,8.99206 175.148,8.99206L171.462,9.85206C171.462,9.85206 171.199,58.4901 173.036,71.4821C174.181,79.5751 178.031,90.5731 178.602,92.9441C179.022,94.6841 177.391,95.4461 175.504,96.0401C173.629,96.6291 171.137,97.0371 170.659,95.6161C168.731,89.8881 165.945,81.1581 164.755,72.1931C162.89,58.1381 163.145,11.8201 163.145,11.8201L158.514,12.9101L158.514,86.8411L150.407,88.3401Z" style="fill:rgb(163,169,173);fill-rule:nonzero;"/>
            </g>
            <g>
                <path d="M195.393,11.1731L203.447,11.1731C205.344,11.1731 205.247,12.5781 205.247,14.7301L205.247,20.2751L174.658,20.2751L174.658,14.7301C174.658,12.4651 174.476,11.1731 176.269,11.1731Z" style="fill:rgb(163,169,173);fill-rule:nonzero;"/>
            </g>
            <g>
                <path d="M185.267,11.3919L185.267,1.66786C185.267,-0.15914 187.041,-0.0471399 189.955,-0.0471399C192.867,-0.0471399 194.633,-0.15914 194.633,1.66786L194.633,11.3919L185.267,11.3919Z" style="fill:rgb(163,169,173);fill-rule:nonzero;"/>
            </g>
            <g>
                <path d="M194.959,62.0403L202.212,62.0403C204.114,62.0403 204.041,64.4373 204.041,66.7033L204.041,71.2483L175.866,71.2483L175.866,66.7033C175.866,64.4373 175.688,62.0403 177.491,62.0403Z" style="fill:rgb(163,169,173);fill-rule:nonzero;"/>
            </g>
            <g>
                <path d="M194.583,95.5208C194.583,97.3448 191.124,97.1598 189.018,97.1598C186.898,97.1598 185.319,97.3448 185.319,95.5208L185.319,49.7948L194.583,49.7948L194.583,95.5208Z" style="fill:rgb(163,169,173);fill-rule:nonzero;"/>
            </g>
            <g>
                <path d="M185.678,49.7952L174.187,49.7952L174.187,44.3542C174.187,42.0912 173.899,40.8002 175.691,40.8002L203.999,40.8002C205.799,40.8002 205.731,42.0912 205.731,44.3542L205.731,49.7952Z" style="fill:rgb(163,169,173);fill-rule:nonzero;"/>
            </g>
            <g>
                <path d="M118.385,39.9637L117.01,15.6767L112.501,16.0967C109.059,16.4457 108.907,18.0347 109.063,20.5947L110.358,44.4867L115.007,44.0657C117.741,43.7067 118.499,42.7887 118.385,39.9637" style="fill:rgb(163,169,173);fill-rule:nonzero;"/>
            </g>
            <g>
                <path d="M122.867,39.9637L124.242,15.6767L128.751,16.0967C132.193,16.4457 132.345,18.0347 132.189,20.5947L130.894,44.4867L126.245,44.0657C123.511,43.7067 122.753,42.7887 122.867,39.9637" style="fill:rgb(163,169,173);fill-rule:nonzero;"/>
            </g>
            <g>
                <path d="M187.711,39.9637L186.335,15.6767L181.826,16.0967C178.384,16.4457 178.232,18.0347 178.389,20.5947L179.683,44.4867L184.332,44.0657C187.066,43.7067 187.825,42.7887 187.711,39.9637" style="fill:rgb(163,169,173);fill-rule:nonzero;"/>
            </g>
            <g>
                <path d="M192.193,39.9637L193.568,15.6767L198.077,16.0967C201.518,16.4457 201.67,18.0347 201.513,20.5947L200.219,44.4867L195.57,44.0657C192.836,43.7067 192.078,42.7887 192.193,39.9637" style="fill:rgb(163,169,173);fill-rule:nonzero;"/>
            </g>
            <g>
                <path d="M333.91,80.9124L310.066,16.6864L310.066,96.4034L297.865,96.4034L297.865,3.37436L318.839,3.37436L342.564,66.6774L366.262,3.37436L378.938,3.37436C383.563,3.37436 387.076,5.37136 387.076,11.0994L387.076,96.4034L374.88,96.4034L374.88,16.6864L351.124,80.9254L333.91,80.9124Z" style="fill:rgb(157,214,197);fill-rule:nonzero;"/>
            </g>
            <g>
                <path d="M235.108,15.5706L235.108,44.8966L282.076,44.8966L282.076,56.9256L235.108,56.9256L235.108,96.3726L223.064,96.3726L223.064,19.4256C223.064,9.57656 227.617,3.54156 238.558,3.54156L286.337,3.54156L286.337,15.5706L235.108,15.5706Z" style="fill:rgb(157,214,197);fill-rule:nonzero;"/>
            </g>
            <g>
                <path d="M16.3133,146.003C16.7953,146.003 17.3083,145.974 17.8493,145.912C18.3943,145.854 18.9263,145.771 19.4563,145.666C19.9823,145.56 20.4713,145.445 20.9243,145.325C21.3743,145.207 21.7653,145.086 22.0973,144.962L22.0973,130.238C21.4033,130.057 20.5673,129.906 19.5913,129.786C18.6103,129.667 17.7283,129.606 16.9473,129.606C15.1683,129.606 13.8273,130.019 12.9243,130.849C12.0213,131.675 11.5683,132.767 11.5683,134.124L11.5683,141.122C11.5683,142.842 11.9923,144.084 12.8333,144.851C13.6783,145.618 14.8363,146.003 16.3133,146.003M22.0973,118.49L25.5783,118.49L25.5783,147.405C23.8903,147.944 22.2863,148.369 20.7643,148.668C19.2443,148.968 17.7613,149.122 16.3133,149.122C15.1993,149.122 14.1453,149.007 13.1513,148.779C12.1573,148.557 11.2833,148.149 10.5293,147.563C9.77629,146.976 9.18229,146.192 8.74329,145.213C8.30829,144.232 8.09029,143.006 8.09029,141.53L8.09029,134.124C8.09029,133.129 8.25629,132.172 8.58529,131.255C8.91729,130.336 9.44329,129.523 10.1673,128.813C10.8913,128.106 11.8093,127.541 12.9243,127.118C14.0393,126.698 15.3803,126.485 16.9473,126.485C17.8493,126.485 18.7613,126.534 19.6793,126.623C20.6003,126.711 21.4033,126.833 22.0973,126.982L22.0973,118.49Z" style="fill:rgb(190,196,198);fill-rule:nonzero;"/>
            </g>
            <g>
                <path d="M57.8324,139.675C57.8324,142.056 58.2614,143.706 59.1204,144.624C59.9784,145.546 61.2214,146.003 62.8484,146.003L63.9774,146.003C65.6044,146.003 66.8414,145.546 67.6854,144.624C68.5264,143.706 68.9504,142.056 68.9504,139.675L68.9504,135.933C68.9504,133.553 68.5264,131.903 67.6854,130.984C66.8414,130.063 65.6044,129.606 63.9774,129.606L62.8484,129.606C61.2214,129.606 59.9784,130.063 59.1204,130.984C58.2614,131.903 57.8324,133.553 57.8324,135.933L57.8324,139.675ZM54.3544,135.524C54.3544,133.838 54.5404,132.423 54.9194,131.275C55.2924,130.132 55.8514,129.208 56.5904,128.499C57.3284,127.79 58.2314,127.279 59.3004,126.962C60.3714,126.646 61.5984,126.486 62.9834,126.486L63.7514,126.486C65.1364,126.486 66.3674,126.646 67.4344,126.962C68.5054,127.279 69.4084,127.79 70.1464,128.499C70.8854,129.208 71.4514,130.132 71.8414,131.275C72.2334,132.423 72.4294,133.838 72.4294,135.524L72.4294,140.084C72.4294,141.738 72.2334,143.15 71.8414,144.31C71.4514,145.468 70.8854,146.403 70.1464,147.11C69.4084,147.82 68.5054,148.33 67.4344,148.647C66.3674,148.963 65.1364,149.122 63.7514,149.122L62.9834,149.122C61.5984,149.122 60.3714,148.963 59.3004,148.647C58.2314,148.33 57.3284,147.82 56.5904,147.11C55.8514,146.403 55.2924,145.468 54.9194,144.31C54.5404,143.15 54.3544,141.738 54.3544,140.084L54.3544,135.524Z" style="fill:rgb(190,196,198);fill-rule:nonzero;"/>
            </g>
            <g>
                <path d="M114.76,127.073L118.241,127.073L118.241,147.944C117.666,148.066 117.034,148.201 116.343,148.351C115.649,148.503 114.934,148.631 114.196,148.736C113.457,148.843 112.718,148.933 111.983,149.007C111.244,149.083 110.527,149.122 109.835,149.122C106.793,149.122 104.554,148.45 103.124,147.109C101.694,145.77 100.977,144.043 100.977,141.935L100.977,127.073L104.457,127.073L104.457,141.711C104.457,142.524 104.601,143.198 104.887,143.745C105.173,144.286 105.564,144.73 106.061,145.077C106.558,145.423 107.132,145.666 107.779,145.801C108.426,145.935 109.111,146.003 109.835,146.003C110.256,146.003 110.709,145.979 111.192,145.935C111.671,145.887 112.138,145.838 112.593,145.777C113.045,145.719 113.467,145.65 113.857,145.575C114.247,145.499 114.548,145.43 114.76,145.371L114.76,127.073Z" style="fill:rgb(190,196,198);fill-rule:nonzero;"/>
            </g>
            <g>
                <path d="M156.87,129.606C156.387,129.606 155.876,129.634 155.335,129.696C154.789,129.758 154.263,129.84 153.751,129.944C153.24,130.049 152.751,130.165 152.283,130.284C151.815,130.405 151.415,130.527 151.086,130.644L151.086,145.372C151.778,145.551 152.616,145.705 153.593,145.821C154.573,145.943 155.455,146.003 156.237,146.003C158.015,146.003 159.356,145.588 160.26,144.759C161.162,143.932 161.615,142.842 161.615,141.485L161.615,134.487C161.615,132.767 161.192,131.526 160.35,130.758C159.506,129.99 158.347,129.606 156.87,129.606M151.086,118.491L151.086,127.436C151.778,127.196 152.651,126.978 153.707,126.78C154.761,126.587 155.814,126.486 156.87,126.486C157.985,126.486 159.038,126.601 160.033,126.828C161.026,127.052 161.901,127.461 162.654,128.044C163.407,128.634 164.001,129.41 164.439,130.373C164.875,131.336 165.096,132.574 165.096,134.082L165.096,141.485C165.096,142.479 164.927,143.435 164.599,144.353C164.266,145.274 163.74,146.085 163.016,146.796C162.292,147.501 161.375,148.067 160.26,148.49C159.144,148.91 157.803,149.123 156.237,149.123C154.789,149.123 153.369,149.017 151.966,148.804C150.565,148.596 149.111,148.308 147.605,147.945L147.605,118.491L151.086,118.491Z" style="fill:rgb(190,196,198);fill-rule:nonzero;"/>
            </g>
            <g>
                <path d="M196.085,141.89C196.085,143.098 196.496,144.068 197.325,144.806C198.155,145.546 199.58,145.912 201.6,145.912C202.018,145.912 202.463,145.888 202.931,145.843C203.398,145.801 203.856,145.741 204.309,145.666C204.761,145.588 205.181,145.514 205.574,145.439C205.965,145.363 206.296,145.28 206.568,145.189L206.568,137.96L200.333,137.96C198.856,137.96 197.778,138.313 197.1,139.024C196.422,139.73 196.085,140.568 196.085,141.531L196.085,141.89ZM201.913,129.606C200.859,129.606 199.438,129.855 198.551,130.353C197.66,130.849 196.894,131.434 196.381,132.216L193.602,130.421C194.388,129.293 195.352,128.356 196.647,127.633C197.943,126.91 199.939,126.486 201.868,126.486C204.699,126.486 206.771,127.119 208.082,128.384C209.391,129.652 210.049,131.7 210.049,134.53L210.049,147.858C208.781,148.188 207.455,148.481 206.07,148.737C204.685,148.993 203.191,149.122 201.6,149.122C199.939,149.122 198.538,148.94 197.395,148.578C196.25,148.216 195.323,147.719 194.617,147.086C193.908,146.453 193.397,145.71 193.079,144.851C192.762,143.993 192.604,143.065 192.604,142.07L192.604,141.393C192.604,139.225 193.344,137.59 194.819,136.489C196.292,135.391 198.254,134.841 200.693,134.841L206.568,134.841L206.568,133.938C206.568,132.102 206.243,131.753 205.597,130.894C204.949,130.034 203.81,129.606 202.184,129.606L201.913,129.606Z" style="fill:rgb(190,196,198);fill-rule:nonzero;"/>
            </g>
            <g>
                <path d="M242.663,148.668L239.183,148.668L239.183,127.662C239.756,127.513 240.39,127.368 241.08,127.233C241.774,127.098 242.489,126.978 243.227,126.872C243.967,126.765 244.712,126.673 245.464,126.601C246.216,126.523 246.927,126.485 247.588,126.485C250.57,126.485 252.792,127.127 254.254,128.405C255.714,129.687 256.446,131.443 256.446,133.675L256.446,148.668L252.964,148.668L252.964,133.852C252.964,132.497 252.521,131.452 251.633,130.711C250.745,129.977 249.486,129.605 247.859,129.605C247.438,129.605 246.97,129.627 246.459,129.672C245.947,129.719 245.449,129.772 244.967,129.832C244.484,129.893 244.039,129.961 243.633,130.033C243.227,130.11 242.906,130.179 242.663,130.238L242.663,148.668Z" style="fill:rgb(190,196,198);fill-rule:nonzero;"/>
            </g>
            <g>
                <rect x="282.764" y="143.139" width="5.178" height="5.529" style="fill:rgb(190,196,198);fill-rule:nonzero;"/>
            </g>
            <g>
                <path d="M313.285,130.328L316.178,130.328L316.178,125.958C316.178,124.877 316.259,123.873 316.428,122.956C316.593,122.037 316.712,121.247 317.165,120.581C317.615,119.919 317.984,119.378 318.776,119.021C320.536,118.23 324.459,118.49 325.046,118.55C325.633,118.61 326.183,118.682 326.694,118.775L326.694,121.937C326.24,121.847 325.773,121.763 325.295,121.691C324.811,121.613 322.986,121.477 322.278,121.575C321.202,121.725 320.753,121.88 320.206,122.479C319.667,123.082 319.657,124.211 319.657,125.869L319.657,130.328L326.423,130.328L326.423,133.4L319.657,133.4L319.657,148.668L316.178,148.668L316.178,133.4L313.285,133.4L313.285,130.328Z" style="fill:rgb(190,196,198);fill-rule:nonzero;"/>
            </g>
            <g>
                <path d="M355.574,148.668L352.094,148.668L352.094,127.662C352.574,127.541 353.126,127.412 353.744,127.278C354.362,127.142 355.011,127.015 355.685,126.895C356.364,126.772 357.057,126.673 357.766,126.601C358.472,126.523 359.158,126.485 359.822,126.485C360.997,126.485 362.117,126.587 363.188,126.779C364.257,126.978 365.138,127.254 365.833,127.617C366.673,127.373 367.73,127.127 368.995,126.872C370.261,126.615 371.495,126.485 372.699,126.485C374.238,126.485 375.548,126.669 376.633,127.032C377.717,127.392 378.603,127.887 379.3,128.522C379.99,129.154 380.503,129.897 380.834,130.758C381.166,131.617 381.331,132.542 381.331,133.535L381.331,148.668L377.851,148.668L377.851,133.535C377.851,132.18 377.423,131.201 376.565,130.601C375.705,129.996 374.418,129.695 372.699,129.695C371.979,129.695 371.216,129.758 370.42,129.874C369.62,129.996 368.966,130.147 368.455,130.328L368.455,148.668L364.972,148.668L364.972,130.825C364.492,130.493 363.767,130.222 362.806,130.011C361.841,129.802 360.845,129.695 359.822,129.695C359.098,129.695 358.337,129.758 357.539,129.874C356.742,129.996 356.086,130.147 355.574,130.328L355.574,148.668Z" style="fill:rgb(190,196,198);fill-rule:nonzero;"/>
            </g>
            <g>
                <path d="M36.8924,87.4114L29.2814,57.4054C29.0284,56.5154 28.5574,54.8564 26.2544,54.8164C25.4774,54.8034 24.4674,54.9684 22.9824,55.3504C19.1094,56.3494 18.1864,57.5104 18.8704,60.5404L26.4054,89.7664C26.8064,91.4224 27.7664,92.2734 29.2564,92.2994C30.0134,92.3124 30.8174,92.1134 31.9344,91.8384L32.3794,91.7274C34.9054,91.1124 37.5174,90.4764 36.8924,87.4114" style="fill:rgb(163,169,173);fill-rule:nonzero;"/>
            </g>
            <g>
                <path d="M59.7591,87.4114L67.3701,57.4064C67.6231,56.5154 68.0941,54.8564 70.3971,54.8164C71.1741,54.8034 72.1841,54.9684 73.6691,55.3504C77.5421,56.3494 78.4651,57.5104 77.7811,60.5404L70.2461,89.7664C69.8451,91.4224 68.8851,92.2734 67.3951,92.2994C66.6381,92.3124 65.8341,92.1134 64.7171,91.8384L64.2721,91.7274C61.7461,91.1124 59.1341,90.4764 59.7591,87.4114" style="fill:rgb(163,169,173);fill-rule:nonzero;"/>
            </g>
        </g>
    </g>
</svg>
